<svg xmlns="http://www.w3.org/2000/svg" shape-rendering="optimizeSpeed" viewBox="0 0 651 1483"><path fill="#a5d6a7" stroke="#444" d="M50 80h463v30H50zM60 80v30M503 80v30"/><text x="75" y="100" fill="#222" font-family="monospace" font-size="13"><tspan x="75" y="100">function fetchGraphQL(operationsDoc, operationName...</tspan></text><rect width="427.8" height="30" x="87" y="129" fill="#90caf9" stroke="#444" rx="3" ry="3"/><path fill="#a5d6a7" stroke="#444" d="M515 139h5M515 149h5M520 133l16 11-16 11z"/><text x="102" y="149" fill="#222" font-family="monospace" font-size="13"><tspan x="102" y="149">return fetch(&quot;undefined&quot;, { method: &quot;POST&quot;, bo...</tspan></text><rect width="209.4" height="30" x="124" y="177" fill="#c5e1a5" stroke="#444" rx="2" ry="2"/><text x="139" y="197" fill="#222" font-family="monospace" font-size="13"><tspan x="139" y="197">fetch(&apos;undefined&apos;, {*})</tspan></text><rect width="53.4" height="30" x="161" y="226" fill="#90caf9" stroke="#444" rx="3" ry="3"/><text x="176" y="246" fill="#222" font-family="monospace" font-size="13"><tspan x="176" y="246">{*}</tspan></text><rect width="139.2" height="30" x="198" y="274" fill="#90caf9" stroke="#444" rx="2" ry="2"/><text x="213" y="294" fill="#222" font-family="monospace" font-size="13"><tspan x="213" y="294">method: &quot;POST&quot;</tspan></text><rect width="427.8" height="30" x="198" y="323" fill="#90caf9" stroke="#444" rx="2" ry="2"/><text x="213" y="343" fill="#222" font-family="monospace" font-size="13"><tspan x="213" y="343">body: JSON.stringify({ query: operationsDoc, v...</tspan></text><rect width="178.2" height="30" x="235" y="371" fill="#c5e1a5" stroke="#444" rx="2" ry="2"/><text x="250" y="391" fill="#222" font-family="monospace" font-size="13"><tspan x="250" y="391">JSON.stringify({*})</tspan></text><rect width="53.4" height="30" x="272" y="420" fill="#90caf9" stroke="#444" rx="3" ry="3"/><text x="287" y="440" fill="#222" font-family="monospace" font-size="13"><tspan x="287" y="440">{*}</tspan></text><rect width="186" height="30" x="309" y="468" fill="#90caf9" stroke="#444" rx="2" ry="2"/><text x="324" y="488" fill="#222" font-family="monospace" font-size="13"><tspan x="324" y="488">query: operationsDoc</tspan></text><rect width="186" height="30" x="309" y="517" fill="#90caf9" stroke="#444" rx="2" ry="2"/><text x="324" y="537" fill="#222" font-family="monospace" font-size="13"><tspan x="324" y="537">variables: variables</tspan></text><rect width="248.4" height="30" x="309" y="565" fill="#90caf9" stroke="#444" rx="2" ry="2"/><text x="324" y="585" fill="#222" font-family="monospace" font-size="13"><tspan x="324" y="585">operationName: operationName</tspan></text><path fill="#a5d6a7" stroke="#444" d="M124 614h136v30H124zM134 614v30M250 614v30"/><text x="149" y="634" fill="#222" font-family="monospace" font-size="13"><tspan x="149" y="634">(result) =&gt;</tspan></text><rect width="186" height="30" x="161" y="662" fill="#90caf9" stroke="#444" rx="3" ry="3"/><path fill="#a5d6a7" stroke="#444" d="M347 672h5M347 682h5M352 666l16 11-16 11z"/><text x="176" y="682" fill="#222" font-family="monospace" font-size="13"><tspan x="176" y="682">return result.json()</tspan></text><rect width="435.6" height="30" x="50" y="711" fill="#90caf9" stroke="#444" rx="3" ry="3"/><text x="65" y="731" fill="#222" font-family="monospace" font-size="13"><tspan x="65" y="731">const operationsDoc = ` mutation insertXml($xm...</tspan></text><path fill="#a5d6a7" stroke="#444" d="M50 774h331v30H50zM60 774v30M371 774v30"/><text x="75" y="794" fill="#222" font-family="monospace" font-size="13"><tspan x="75" y="794">function executeInsertXml(xml, user)</tspan></text><g><rect width="435.6" height="30" x="87" y="823" fill="#90caf9" stroke="#444" rx="3" ry="3"/><path fill="#a5d6a7" stroke="#444" d="M523 833h5M523 843h5M528 827l16 11-16 11z"/><text x="102" y="843" fill="#222" font-family="monospace" font-size="13"><tspan x="102" y="843">return fetchGraphQL(operationsDoc, &quot;insertXml&quot;, { ...</tspan></text></g><g><rect width="53.4" height="30" x="124" y="871" fill="#90caf9" stroke="#444" rx="3" ry="3"/><text x="139" y="891" fill="#222" font-family="monospace" font-size="13"><tspan x="139" y="891">{*}</tspan></text></g><g><rect width="108" height="30" x="161" y="920" fill="#90caf9" stroke="#444" rx="2" ry="2"/><text x="176" y="940" fill="#222" font-family="monospace" font-size="13"><tspan x="176" y="940">&quot;xml&quot;: xml</tspan></text></g><g><rect width="123.6" height="30" x="161" y="968" fill="#90caf9" stroke="#444" rx="2" ry="2"/><text x="176" y="988" fill="#222" font-family="monospace" font-size="13"><tspan x="176" y="988">&quot;user&quot;: user</tspan></text></g><g><rect width="240.6" height="30" x="50" y="1017" fill="#c5e1a5" stroke="#444" rx="2" ry="2"/><text x="65" y="1037" fill="#222" font-family="monospace" font-size="13"><tspan x="65" y="1037">executeInsertXml(xml, user)</tspan></text></g><g><rect width="108" height="30" x="50" y="1065" fill="#c5e1a5" stroke="#444" rx="2" ry="2"/><text x="65" y="1085" fill="#222" font-family="monospace" font-size="13"><tspan x="65" y="1085">.then(*())</tspan></text><circle cx="56" cy="1089" r="4" fill="#ede7f6" stroke="#444"/></g><g><path fill="#a5d6a7" stroke="#444" d="M87 1114h222v30H87zM97 1114v30M299 1114v30"/><text x="112" y="1134" fill="#222" font-family="monospace" font-size="13"><tspan x="112" y="1134">({ data, errors }) =&gt;</tspan></text></g><g><rect width="122.4" height="30" x="154" y="1177" fill="#ce93d8" stroke="#444" rx="3" ry="3"/><path fill="#ce93d8" stroke="#444" d="M124 1192l30-30 30 30-30 30z"/><text x="199" y="1197" fill="#222" font-family="monospace" font-size="13"><tspan x="199" y="1197">(errors)</tspan></text><text x="146" y="1197" fill="#222" font-family="monospace" font-size="13">if</text><text x="162" y="1224" fill="#222" font-family="monospace" font-size="13">+</text></g><g><rect width="193.8" height="30" x="174" y="1232" fill="#c5e1a5" stroke="#444" rx="2" ry="2"/><text x="189" y="1252" fill="#222" font-family="monospace" font-size="13"><tspan x="189" y="1252">console.error(errors)</tspan></text></g><g><rect width="162.6" height="30" x="124" y="1282" fill="#c5e1a5" stroke="#444" rx="2" ry="2"/><text x="139" y="1302" fill="#222" font-family="monospace" font-size="13"><tspan x="139" y="1302">console.log(data)</tspan></text></g><g><rect width="115.8" height="30" x="50" y="1331" fill="#c5e1a5" stroke="#444" rx="2" ry="2"/><text x="65" y="1351" fill="#222" font-family="monospace" font-size="13"><tspan x="65" y="1351">.catch(*())</tspan></text><circle cx="56" cy="1354.5" r="4" fill="#ede7f6" stroke="#444"/></g><g><path fill="#a5d6a7" stroke="#444" d="M87 1379h128v30H87zM97 1379v30M205 1379v30"/><text x="112" y="1399" fill="#222" font-family="monospace" font-size="13"><tspan x="112" y="1399">(error) =&gt;</tspan></text></g><g><rect width="186" height="30" x="124" y="1428" fill="#c5e1a5" stroke="#444" rx="2" ry="2"/><text x="139" y="1448" fill="#222" font-family="monospace" font-size="13"><tspan x="139" y="1448">console.error(error)</tspan></text></g><g><path fill="#fff59d" stroke="#444" d="M25 14h217v24H25z"/><circle cx="25" cy="25" r="15" fill="#fff59d" stroke="#444"/><text x="55" y="30" fill="#222" font-family="monospace" font-size="13"><tspan x="55" y="30">Program: source module</tspan></text></g><g><path fill="none" stroke="#444" d="M25 40v51q0 4 4 4h13"/><path fill="#333" d="M42 92l8 3-8 3z"/></g><g><path fill="none" stroke="#444" d="M69 110v30q0 4 4 4h6"/><path fill="#333" d="M79 141l8 3-8 3z"/></g><g><path fill="none" stroke="#444" d="M106 159v29q0 4 4 4h6"/><path fill="#333" d="M116 189l8 3-8 3z"/></g><g><path fill="none" stroke="#444" d="M143 207v30q0 4 4 4h6"/><path fill="#333" d="M153 238l8 3-8 3z"/></g><g><path fill="none" stroke="#444" d="M180 256v29q0 4 4 4h14"/>false</g><g><path fill="none" stroke="#444" d="M180 256v78q0 4 4 4h14"/>false</g><g><path fill="none" stroke="#444" d="M217 353v29q0 4 4 4h6"/><path fill="#333" d="M227 383l8 3-8 3z"/></g><g><path fill="none" stroke="#444" d="M254 401v30q0 4 4 4h6"/><path fill="#333" d="M264 432l8 3-8 3z"/></g><g><path fill="none" stroke="#444" d="M291 450v29q0 4 4 4h14"/>false</g><g><path fill="none" stroke="#444" d="M291 450v78q0 4 4 4h14"/>false</g><g><path fill="none" stroke="#444" d="M291 450v126q0 4 4 4h14"/>false</g><g><path fill="none" stroke="#444" d="M106 159v466q0 4 4 4h6"/><path fill="#333" d="M116 626l8 3-8 3z"/></g><g><path fill="none" stroke="#444" d="M143 644v29q0 4 4 4h6"/><path fill="#333" d="M153 674l8 3-8 3z"/></g><g><path fill="none" stroke="#444" d="M25 40v682q0 4 4 4h13"/><path fill="#333" d="M42 723l8 3-8 3z"/></g><g><path fill="none" stroke="#444" d="M25 40v745q0 4 4 4h13"/><path fill="#333" d="M42 786l8 3-8 3z"/></g><g><path fill="none" stroke="#444" d="M69 804v30q0 4 4 4h6"/><path fill="#333" d="M79 835l8 3-8 3z"/></g><g><path fill="none" stroke="#444" d="M106 853v29q0 4 4 4h6"/><path fill="#333" d="M116 883l8 3-8 3z"/></g><g><path fill="none" stroke="#444" d="M143 901v30q0 4 4 4h14"/>false</g><g><path fill="none" stroke="#444" d="M143 901v78q0 4 4 4h14"/>false</g><g><path fill="none" stroke="#444" d="M25 40v988q0 4 4 4h13"/><path fill="#333" d="M42 1029l8 3-8 3z"/></g><g><path fill="none" stroke="#444" d="M25 40v1036q0 4 4 4h13"/><path fill="#333" d="M42 1077l8 3-8 3z"/></g><g><path fill="none" stroke="#444" d="M69 1095v30q0 4 4 4h14"/>false</g><g><path fill="none" stroke="#444" d="M106 1144v44q0 4 4 4h6"/><path fill="#333" d="M116 1189l8 3-8 3z"/></g><g><path fill="none" stroke="#444" d="M154 1222v21q0 4 4 4h8"/><path fill="#333" d="M166 1244l8 3-8 3z"/></g><g><path fill="none" stroke="#444" d="M106 1144v149q0 4 4 4h6"/><path fill="#333" d="M116 1294l8 3-8 3z"/></g><g><path fill="none" stroke="#444" d="M25 40v1302q0 4 4 4h13"/><path fill="#333" d="M42 1343l8 3-8 3z"/></g><g><path fill="none" stroke="#444" d="M69 1361v29q0 4 4 4h14"/>false</g><g><path fill="none" stroke="#444" d="M106 1409v30q0 4 4 4h6"/><path fill="#333" d="M116 1440l8 3-8 3z"/></g></svg>